<?xml version="1.0" encoding="UTF-8" standalone="no" ?>
<!DOCTYPE svg PUBLIC "-//W3C//DTD SVG 1.1//EN" "http://www.w3.org/Graphics/SVG/1.1/DTD/svg11.dtd">
<svg xmlns="http://www.w3.org/2000/svg" xmlns:xlink="http://www.w3.org/1999/xlink" version="1.1" width="640" height="640" viewBox="0 0 640 640" xml:space="preserve">
<desc>Created with Fabric.js 5.3.0</desc>
<defs>
</defs>
<g transform="matrix(0.9651782425 0 0 0.9651782425 251.0674760293 284.0233536477)" id="nw970-gqza3sdqrFia-12"  >
<path style="stroke: rgb(0,0,0); stroke-width: 1; stroke-dasharray: none; stroke-linecap: butt; stroke-dashoffset: 0; stroke-linejoin: miter; stroke-miterlimit: 4; fill: rgb(255,255,255); fill-opacity: 0; fill-rule: nonzero; opacity: 1;"  transform=" translate(0, 0)" d="M -42.89242 -80.70547 L -30.476190000000003 -105.53792000000001 L -11.287480000000002 -85.22046000000002 L -22.574960000000004 -59.25926000000001 L -22.574960000000004 -14.109350000000013 L -22.574960000000004 30.47618999999999 L 4.514989999999997 63.77424999999999 L 13.544969999999998 79.57672 L 31.604929999999996 59.25926 L 39.506159999999994 15.238099999999996 L 31.604929999999996 -22.010580000000004 L 39.506159999999994 -80.70547 L 27.089929999999995 -111.18166000000001 L 13.544959999999996 -139.40035 L 39.506159999999994 -157.46031 L 66.59611 -111.18164999999999 L 66.59611 -27.654309999999995 L 66.59611 102.15169000000002 L 66.59611 157.46033 L 31.604929999999996 147.3016 L 13.544969999999996 133.75663 L -11.287480000000006 111.18167 L -34.99118000000001 95.3792 L -53.051140000000004 63.77426 L -66.59611000000001 30.4762 L -66.59611000000001 -3.9506100000000046 L -66.59611000000001 -38.941790000000005 z" stroke-linecap="round" />
</g>
<g transform="matrix(1.0704327569 0 0 1.1176881862 391.4490040256 288.9743553425)" id="ZkNl6Nx6x053UlOho8Ot9"  >
<path style="stroke: rgb(0,0,0); stroke-width: 1; stroke-dasharray: none; stroke-linecap: butt; stroke-dashoffset: 0; stroke-linejoin: miter; stroke-miterlimit: 4; fill: rgb(255,255,255); fill-opacity: 0; fill-rule: nonzero; opacity: 1;"  transform=" translate(0, 0)" d="M -60.38801 -161.09656 L -60.38801 161.09656 L -35.55556 156.08157 L -25.39683 124.47663 L -35.55556 -86.59921 L -1.6931299999999965 -54.99427 L 33.29805 -113.68916 L 5.079360000000005 149.30908 L 49.10052 124.47663 L 60.388000000000005 -132.87786999999997 L 33.29805 -149.80908999999997 L -1.6931299999999965 -104.65917999999996 z" stroke-linecap="round" />
</g>
<g transform="matrix(1 0 0 1 523.1907013018 296.610670194)" id="jclsFjPI92lH8fI5cO-iX"  >
<path style="stroke: rgb(0,0,0); stroke-width: 1; stroke-dasharray: none; stroke-linecap: butt; stroke-dashoffset: 0; stroke-linejoin: miter; stroke-miterlimit: 4; fill: rgb(255,255,255); fill-opacity: 0; fill-rule: nonzero; opacity: 1;"  transform=" translate(0, 0)" d="M -57.58224 -135.19974 L -38.39353 -153.25969999999998 L -21.46231 -165.04717999999997 L 4.498890000000003 -144.22971999999996 L 23.687600000000003 -113.75352999999996 L -21.462309999999995 -102.46604999999995 L -27.106049999999996 -53.92988999999995 L 23.687600000000003 -53.92988999999995 L 49.64880000000001 -58.44487999999995 L 57.58223000000001 -2.0074899999999474 L 49.64880000000001 47.657410000000056 L 4.49889000000001 126.66976000000005 L -27.10604999999999 151.37346000000005 L -49.681009999999986 165.04718000000005 L -49.681009999999986 101.83730000000006 L -49.681009999999986 53.30114000000005 L -1.144849999999984 53.30114000000005 L 4.498890000000016 -10.223109999999949 L -57.582239999999985 -17.80996999999995 L -57.582239999999985 -129.55599999999995 z" stroke-linecap="round" />
</g>
<g transform="matrix(1 0 0 1 51.3580246914 196.4021164021)" id="Ky7VRPFJZpEIOVguXOmQy"  >
<path style="stroke: rgb(0,0,0); stroke-width: 1; stroke-dasharray: none; stroke-linecap: round; stroke-dashoffset: 0; stroke-linejoin: round; stroke-miterlimit: 10; fill: none; fill-rule: nonzero; opacity: 1;"  transform=" translate(-51.3580246914, -196.4021164021)" d="M 51.357024691357914 196.40211640211638 L 51.35902469135791 196.40211640211638" stroke-linecap="round" />
</g>
</svg>